<?xml version="1.0" encoding="utf-8"?>
<!-- Generator: Adobe Illustrator 24.0.0, SVG Export Plug-In . SVG Version: 6.00 Build 0)  -->
<svg version="1.1" id="Layer_1" xmlns="http://www.w3.org/2000/svg" xmlns:xlink="http://www.w3.org/1999/xlink" x="0px" y="0px"
	 viewBox="0 0 256 256" enable-background="new 0 0 256 256" xml:space="preserve">
<g>
</g>
<g>
	<path fill="#AEAEAE" d="M210.88,86.331c-1.749-41.437-35.881-74.498-77.749-74.498c-34.127,0-63.103,21.973-73.606,52.536
		c-29.45-0.83-53.067,22.825-53.067,51.546c0,28.489,23.095,51.584,51.584,51.584h150.911c22.428,0,40.609-18.181,40.609-40.609
		C249.561,105.11,232.412,87.338,210.88,86.331z"/>
	<path fill="#F0C020" d="M29.808,193.714c-3.961-1.309-8.051-2.453-10.348-12.345c-2.115,9.112-5.504,10.745-10.348,12.345
		c7.9,2.61,9.092,6.933,10.348,12.345C21.625,196.73,25.205,195.235,29.808,193.714z"/>
	<path d="M16.869,206.661c-1.147-4.945-1.905-8.212-8.591-10.421c-2.43-0.803-2.424-4.25,0-5.051
		c4.025-1.33,6.684-2.209,8.591-10.422c0.633-2.73,4.546-2.737,5.181,0c1.95,8.399,4.863,9.193,8.591,10.421
		c2.43,0.803,2.424,4.25,0,5.051c-3.881,1.282-6.686,2.209-8.591,10.421C21.414,209.403,17.506,209.404,16.869,206.661z
		 M15.349,193.775c1.914,1.314,3.222,2.815,4.164,4.403c1.141-2.017,2.462-3.405,3.934-4.439c-1.411-1.01-2.778-2.44-3.977-4.601
		C18.283,191.271,16.897,192.713,15.349,193.775z"/>
	<path fill="#F0C020" d="M247.023,193.714c-3.961-1.309-8.051-2.453-10.348-12.345c-2.115,9.112-5.504,10.745-10.348,12.345
		c7.9,2.61,9.092,6.933,10.348,12.345C238.84,196.73,242.421,195.235,247.023,193.714z"/>
	<path d="M234.085,206.661c-1.147-4.945-1.905-8.212-8.591-10.421c-2.43-0.803-2.424-4.25,0-5.051
		c4.025-1.33,6.684-2.209,8.591-10.422c0.633-2.73,4.546-2.737,5.181,0c1.95,8.399,4.863,9.193,8.591,10.421
		c2.43,0.803,2.424,4.25,0,5.051c-3.881,1.282-6.686,2.209-8.591,10.421C238.63,209.403,234.722,209.404,234.085,206.661z
		 M232.565,193.775c1.914,1.314,3.222,2.815,4.164,4.403c1.141-2.017,2.462-3.405,3.934-4.439c-1.411-1.01-2.778-2.44-3.977-4.601
		C235.499,191.271,234.113,192.713,232.565,193.775z"/>
	<path fill="#72C2E9" d="M148.38,223.578c0,11.371-9.218,20.588-20.588,20.588s-20.588-9.218-20.588-20.588
		c0-11.371,20.588-39.412,20.588-39.412S148.38,212.208,148.38,223.578z"/>
	<path fill="#72C2E9" d="M83.598,223.578c0,11.371-9.218,20.588-20.588,20.588s-20.588-9.218-20.588-20.588
		c0-11.371,20.588-39.412,20.588-39.412S83.598,212.208,83.598,223.578z"/>
	<path fill="#72C2E9" d="M213.598,223.578c0,11.371-9.218,20.588-20.588,20.588c-11.371,0-20.588-9.218-20.588-20.588
		c0-11.371,20.588-39.412,20.588-39.412S213.598,212.208,213.598,223.578z"/>
	<path fill="#EEEEEE" d="M208.953,160H71.042c-1.381,0-2.5-1.119-2.5-2.5s1.119-2.5,2.5-2.5h137.911
		c15.499,0,28.108-12.609,28.108-28.109c0-15.04-11.756-27.372-26.765-28.073c-6.512-0.305-11.63-5.446-11.905-11.959
		c-1.479-35.061-30.145-62.525-65.26-62.525c-1.381,0-2.5-1.119-2.5-2.5s1.119-2.5,2.5-2.5c37.803,0,68.663,29.568,70.256,67.314
		c0.165,3.908,3.236,6.993,7.144,7.176c17.681,0.826,31.53,15.352,31.53,33.067C242.061,145.147,227.209,160,208.953,160z
		 M61.042,160h-3c-1.381,0-2.5-1.119-2.5-2.5s1.119-2.5,2.5-2.5h3c1.381,0,2.5,1.119,2.5,2.5S62.423,160,61.042,160z"/>
	<path fill="#C4E4FD" d="M127.791,236.667c-3.569,0-6.906-1.415-9.395-3.983c-0.961-0.991-0.937-2.574,0.055-3.535
		s2.574-0.936,3.535,0.055c1.54,1.588,3.602,2.463,5.805,2.463c4.459,0,8.088-3.625,8.088-8.082
		c-0.007-0.308-0.223-2.438-3.777-9.246c-0.64-1.224-0.165-2.734,1.059-3.373c1.224-0.641,2.733-0.165,3.373,1.059
		c4.278,8.192,4.329,10.689,4.345,11.51C140.88,230.798,135.009,236.667,127.791,236.667z M127.238,205.79
		c-0.506-0.831-1.027-1.67-1.562-2.518c-0.736-1.168-0.387-2.711,0.781-3.448c1.168-0.736,2.712-0.386,3.448,0.781
		c0.548,0.869,1.082,1.731,1.602,2.583c0.719,1.179,0.346,2.717-0.834,3.436C129.493,207.343,127.956,206.968,127.238,205.79z"/>
	<path fill="#C4E4FD" d="M63.01,236.667c-3.569,0-6.906-1.415-9.395-3.983c-0.961-0.991-0.937-2.574,0.055-3.535
		c0.992-0.961,2.575-0.936,3.535,0.055c1.54,1.588,3.602,2.463,5.805,2.463c4.459,0,8.088-3.625,8.088-8.082
		c-0.006-0.309-0.222-2.438-3.776-9.246c-0.639-1.224-0.165-2.734,1.059-3.374c1.223-0.64,2.733-0.166,3.374,1.059
		c4.278,8.194,4.327,10.691,4.343,11.511C76.097,230.798,70.226,236.667,63.01,236.667z M62.455,205.789
		c-0.505-0.831-1.026-1.67-1.561-2.517c-0.736-1.168-0.387-2.711,0.781-3.448c1.169-0.736,2.712-0.386,3.448,0.781
		c0.548,0.869,1.083,1.731,1.602,2.583c0.718,1.18,0.344,2.718-0.835,3.436C64.712,207.342,63.174,206.968,62.455,205.789z"/>
	<path fill="#C4E4FD" d="M193.01,236.667c-3.568,0-6.904-1.415-9.396-3.983c-0.961-0.991-0.937-2.574,0.055-3.535
		c0.991-0.96,2.574-0.937,3.535,0.055c1.54,1.588,3.603,2.463,5.806,2.463c4.46,0,8.088-3.625,8.088-8.082
		c-0.007-0.31-0.221-2.438-3.775-9.246c-0.64-1.224-0.165-2.734,1.059-3.373c1.225-0.641,2.734-0.165,3.373,1.059
		c4.28,8.195,4.327,10.692,4.344,11.512C206.097,230.798,200.226,236.667,193.01,236.667z M192.458,205.792
		c-0.507-0.831-1.028-1.672-1.563-2.52c-0.737-1.168-0.387-2.711,0.78-3.448c1.167-0.734,2.713-0.388,3.448,0.781
		c0.548,0.868,1.081,1.729,1.602,2.58c0.72,1.178,0.348,2.717-0.83,3.437C194.713,207.343,193.177,206.968,192.458,205.792z"/>
	<path d="M107.409,220.77c1.333,0.424,2.726-0.322,3.14-1.64c0.41-1.31-0.33-2.72-1.65-3.13c-1.3-0.41-2.72,0.35-3.13,1.64
		C105.355,218.967,106.126,220.382,107.409,220.77z"/>
	<path d="M105.3,228.81c2.391,10.308,11.625,17.839,22.49,17.86c12.73-0.01,23.09-10.36,23.09-23.09
		c-0.103-10.623-14.78-32.204-20.99-40.77c-0.05-0.08-0.08-0.11-0.08-0.12c-0.985-1.342-3.022-1.374-4.03,0
		c-0.01,0-0.02,0.03-0.05,0.07c-1.66,2.27-10.18,14.17-15.87,25.29c-0.649,1.276-0.087,2.762,1.09,3.36
		c1.2,0.62,2.75,0.11,3.36-1.09c3.698-7.229,8.83-15.156,13.48-21.85c4.634,6.653,18.275,27.01,18.09,35.11
		c-0.021,9.95-8.13,18.07-18.1,18.09c-8.46,0-15.7-5.76-17.61-13.99c-0.31-1.33-1.66-2.18-3-1.87
		C105.81,226.124,104.989,227.467,105.3,228.81z"/>
	<path d="M86.098,223.579c0-11.848-18.917-37.954-21.073-40.892c-0.999-1.36-3.032-1.359-4.03,0
		c-2.157,2.938-21.073,29.044-21.073,40.892c0,12.73,10.357,23.088,23.088,23.088S86.098,236.309,86.098,223.579z M44.921,223.579
		c0-7.748,11.642-25.936,18.088-35.12c6.447,9.183,18.088,27.368,18.088,35.12c0,9.974-8.114,18.088-18.088,18.088
		S44.921,233.552,44.921,223.579z"/>
	<path d="M216.097,223.579c0-11.848-18.916-37.954-21.072-40.892c-1-1.36-3.032-1.359-4.031,0
		c-2.156,2.938-21.072,29.044-21.072,40.892c0,12.73,10.357,23.088,23.088,23.088S216.097,236.309,216.097,223.579z
		 M174.922,223.579c0-7.748,11.641-25.935,18.088-35.12c6.447,9.185,18.088,27.372,18.088,35.12c0,9.974-8.114,18.088-18.088,18.088
		S174.922,233.552,174.922,223.579z"/>
	<path d="M8.7,100.62c1.342,0.48,2.755-0.241,3.2-1.5c0.457-1.252-0.138-2.706-1.49-3.2c-1.27-0.46-2.74,0.23-3.2,1.49
		C6.734,98.711,7.403,100.146,8.7,100.62z"/>
	<path d="M213.25,84c-2.926-42-37.921-74.67-80.12-74.67c-34.582,0.02-64.015,21.813-75.35,52.5
		c-19.436,0.103-36.575,10.468-46.05,26.14c-0.734,1.195-0.312,2.744,0.84,3.43c1.165,0.698,2.703,0.362,3.44-0.84
		c9.537-15.782,26.292-24.177,43.01-23.71c1.523,0.111,2.505-0.596,2.87-1.67c10.45-30.41,39.08-50.85,71.229-50.85h0.021
		c40.49,0,73.54,31.67,75.24,72.11c0.06,1.3,1.08,2.33,2.38,2.39c20.359,0.95,36.3,17.67,36.3,38.06
		c0,21.073-17.043,38.11-38.11,38.11H58.039c-29.797,0-53.114-26.435-48.5-56.68c0.202-1.333-0.673-2.626-2.08-2.86
		c-1.36-0.21-2.64,0.73-2.86,2.08v0.01C-0.528,140.452,24.937,170,58.039,170h150.91c23.815,0,43.11-19.27,43.11-43.11
		C252.059,104.636,235.151,86.173,213.25,84z"/>
</g>
</svg>
