<?xml version="1.0" encoding="UTF-8"?>
<!DOCTYPE svg PUBLIC "-//W3C//DTD SVG 1.1//EN" "http://www.w3.org/Graphics/SVG/1.1/DTD/svg11.dtd">
<!-- Creator: CorelDRAW -->
<svg xmlns="http://www.w3.org/2000/svg" xml:space="preserve" width="6.82666in" height="6.82666in" style="shape-rendering:geometricPrecision; text-rendering:geometricPrecision; image-rendering:optimizeQuality; fill-rule:evenodd; clip-rule:evenodd"
viewBox="0 0 6.82666 6.82666"
 xmlns:xlink="http://www.w3.org/1999/xlink">
 <defs>
  <style type="text/css">
   <![CDATA[
    .fil2 {fill:none}
    .fil1 {fill:#512DA8}
    .fil0 {fill:#7E57C2}
    .fil4 {fill:#00ACC1;fill-rule:nonzero}
    .fil5 {fill:#26C6DA;fill-rule:nonzero}
    .fil6 {fill:#4DD0E1;fill-rule:nonzero}
    .fil3 {fill:#FF7043;fill-rule:nonzero}
   ]]>
  </style>
   <clipPath id="id0">
    <path d="M3.41333 -3.93701e-006c1.88513,0 3.41333,1.5282 3.41333,3.41333 0,1.88513 -1.5282,3.41333 -3.41333,3.41333 -1.88513,0 -3.41333,-1.5282 -3.41333,-3.41333 0,-1.88513 1.5282,-3.41333 3.41333,-3.41333z"/>
   </clipPath>
 </defs>
 <g id="Layer_x0020_1">
  <metadata id="CorelCorpID_0Corel-Layer"/>
  <path class="fil0" d="M3.41333 -3.93701e-006c1.88513,0 3.41333,1.5282 3.41333,3.41333 0,1.88513 -1.5282,3.41333 -3.41333,3.41333 -1.88513,0 -3.41333,-1.5282 -3.41333,-3.41333 0,-1.88513 1.5282,-3.41333 3.41333,-3.41333z"/>
  <g style="clip-path:url(#id0)">
   <g id="_357782312">
    <g>
     <polygon id="_3601992881" class="fil1" points="3.32636,1.56439 7.11263,5.35066 7.08196,5.45444 3.2957,1.66817 "/>
     <polygon id="_360199240" class="fil1" points="3.19081,1.56791 6.97708,5.35418 7.02197,5.43672 3.2357,1.65045 "/>
     <polygon id="_360200608" class="fil1" points="3.40252,1.66793 7.18879,5.4542 7.0616,5.52337 3.27533,1.7371 "/>
     <polygon id="_360200104" class="fil1" points="3.27533,1.7371 7.0616,5.52337 7.03987,5.59692 3.2536,1.81065 "/>
     <polygon id="_360200440" class="fil1" points="3.14872,1.71038 6.93499,5.49665 6.97988,5.57919 3.19361,1.79292 "/>
     <polygon id="_360200560" class="fil1" points="3.36043,1.8104 7.14669,5.59667 7.0195,5.66584 3.23324,1.87957 "/>
     <polygon id="_360200176" class="fil1" points="3.23324,1.87957 7.0195,5.66584 6.97593,5.81335 3.18966,2.02707 "/>
     <polygon id="_360200032" class="fil1" points="3.18966,2.02707 6.97593,5.81335 6.99861,5.94058 3.21235,2.15431 "/>
     <polygon id="_360199960" class="fil1" points="2.58659,1.70267 6.37285,5.48894 6.46657,5.58756 2.6803,1.80129 "/>
     <polygon id="_360200056" class="fil1" points="2.73344,1.70844 6.5197,5.49472 6.51602,5.63959 2.72975,1.85332 "/>
     <polygon id="_360200368" class="fil1" points="3.28902,2.44176 7.07529,6.22803 7.18069,6.33894 3.39443,2.55267 "/>
     <polygon id="_360201112" class="fil1" points="2.72975,1.85332 6.51602,5.63959 6.56891,5.69525 2.78264,1.90898 "/>
     <polygon id="_360200704" class="fil1" points="2.83578,1.81613 6.62204,5.60241 6.61835,5.74729 2.83209,1.96102 "/>
     <polygon id="_360201400" class="fil1" points="3.44387,2.60471 7.23014,6.39098 7.28303,6.44663 3.49676,2.66036 "/>
     <polygon id="_360200728" class="fil1" points="2.83209,1.96102 6.61835,5.74729 6.7139,5.84783 2.92763,2.06156 "/>
     <polygon id="_360200776" class="fil1" points="3.35209,2.24279 7.13836,6.02906 7.03912,6.11266 3.25285,2.32639 "/>
     <polygon id="_360200968" class="fil1" points="3.54621,2.7124 7.33248,6.49867 7.40714,6.57723 3.62087,2.79096 "/>
     <polygon id="_360200848" class="fil1" points="2.6846,1.89622 6.47087,5.6825 6.32595,5.6788 2.53969,1.89253 "/>
     <polygon id="_360201376" class="fil1" points="2.95501,2.39648 6.74128,6.18275 6.61633,6.15484 2.83006,2.36857 "/>
     <polygon id="_360200896" class="fil1" points="2.78693,2.00391 6.5732,5.79019 6.42829,5.7865 2.64202,2.00022 "/>
     <polygon id="_360201208" class="fil1" points="3.25242,2.49383 7.03869,6.2801 6.91034,6.23367 3.12407,2.44739 "/>
     <polygon id="_360201136" class="fil1" points="3.12407,2.44739 6.91034,6.23367 6.82399,6.3276 3.03772,2.54133 "/>
     <polygon id="_360201712" class="fil1" points="3.39864,2.64769 7.18491,6.43396 7.18251,6.52805 3.39624,2.74178 "/>
     <polygon id="_360201520" class="fil1" points="3.39624,2.74178 7.18251,6.52805 7.13176,6.52672 3.3455,2.74045 "/>
     <polygon id="_360202144" class="fil1" points="2.83006,2.36857 6.61633,6.15484 6.49383,6.18434 2.70757,2.39807 "/>
     <polygon id="_360201544" class="fil1" points="2.63778,2.41487 6.42405,6.20115 6.34941,6.21912 2.56314,2.43285 "/>
     <polygon id="_360201904" class="fil1" points="2.49335,2.44966 6.27961,6.23593 6.14752,6.26774 2.36126,2.48147 "/>
     <polygon id="_360201880" class="fil1" points="2.47874,2.38899 6.26501,6.17526 6.18476,6.12616 2.39849,2.33989 "/>
     <polygon id="_360201496" class="fil1" points="2.56314,2.43285 6.34941,6.21912 6.27381,6.34267 2.48755,2.5564 "/>
     <polygon id="_360202168" class="fil1" points="2.48755,2.5564 6.27381,6.34267 6.2305,6.31621 2.44423,2.52994 "/>
     <polygon id="_360201688" class="fil1" points="2.87947,2.85617 6.66574,6.64244 6.5832,6.68734 2.79693,2.90107 "/>
     <polygon id="_360202000" class="fil1" points="2.90099,3.00413 6.68726,6.7904 6.62726,6.77268 2.841,2.98641 "/>
     <polygon id="_360202840" class="fil1" points="2.62317,2.3542 6.40944,6.14048 6.32919,6.09137 2.54292,2.3051 "/>
     <polygon id="_360202936" class="fil1" points="2.63198,2.52161 6.41825,6.30789 6.37493,6.28143 2.58866,2.49515 "/>
     <polygon id="_360202360" class="fil1" points="3.50098,2.75539 7.28724,6.54166 7.28485,6.63574 3.49858,2.84947 "/>
     <polygon id="_360202384" class="fil1" points="3.03772,2.54133 6.82399,6.3276 6.78819,6.44877 3.00192,2.6625 "/>
     <polygon id="_360202456" class="fil1" points="2.70757,2.39807 6.49383,6.18434 6.41825,6.30789 2.63198,2.52161 "/>
     <polygon id="_360202432" class="fil1" points="2.92157,2.7137 6.70783,6.49997 6.62529,6.54487 2.83902,2.75859 "/>
     <polygon id="_360202528" class="fil1" points="2.95983,2.80498 6.74609,6.59125 6.81527,6.71843 3.029,2.93216 "/>
     <polygon id="_360202216" class="fil1" points="2.93946,2.8739 6.72573,6.66017 6.68726,6.7904 2.90099,3.00413 "/>
     <polygon id="_360202504" class="fil1" points="3.029,2.93216 6.81527,6.71843 6.77063,6.74272 2.98436,2.95644 "/>
     <polygon id="_360202672" class="fil1" points="2.98156,2.73143 6.76783,6.5177 6.74609,6.59125 2.95983,2.80498 "/>
     <polygon id="_360202720" class="fil1" points="3.07109,2.78969 6.85736,6.57596 6.81272,6.60024 3.02645,2.81397 "/>
     <polygon id="_360203080" class="fil1" points="3.00192,2.6625 6.78819,6.44877 6.85736,6.57596 3.07109,2.78969 "/>
     <polygon id="_360203680" class="fil1" points="3.62087,2.79096 7.40714,6.57723 7.36184,6.62016 3.57557,2.83389 "/>
     <polygon id="_360203008" class="fil1" points="3.49858,2.84947 7.28485,6.63574 7.2341,6.63441 3.44783,2.84814 "/>
     <polygon id="_360203704" class="fil1" points="3.53925,2.55636 7.32552,6.34263 7.32419,6.39338 3.53792,2.60711 "/>
     <polygon id="_360203296" class="fil1" points="3.25285,2.32639 7.03912,6.11266 7.07529,6.22803 3.28902,2.44176 "/>
     <polygon id="_360203224" class="fil1" points="3.53792,2.60711 7.32419,6.39338 7.23014,6.39098 3.44387,2.60471 "/>
     <polygon id="_360203032" class="fil1" points="3.64159,2.66406 7.42786,6.45033 7.42653,6.50107 3.64026,2.7148 "/>
     <polygon id="_360203728" class="fil1" points="3.64026,2.7148 7.42653,6.50107 7.33248,6.49867 3.54621,2.7124 "/>
     <polygon id="_360203416" class="fil1" points="3.33615,1.76575 7.12241,5.55202 7.14669,5.59667 3.36043,1.8104 "/>
     <polygon id="_360203488" class="fil1" points="3.37824,1.62328 7.16451,5.40955 7.18879,5.4542 3.40252,1.66793 "/>
     <polygon id="_360203752" class="fil1" points="3.74993,2.0144 7.5362,5.80067 7.48704,5.88103 3.70077,2.09476 "/>
     <polygon id="_360204232" class="fil1" points="3.80622,2.06936 7.59248,5.85563 7.60694,5.91621 3.82068,2.12994 "/>
     <polygon id="_360203920" class="fil1" points="3.6055,2.04919 7.39177,5.83546 7.3426,5.91581 3.55633,2.12954 "/>
     <polygon id="_360204184" class="fil1" points="3.76922,2.24777 7.55548,6.03404 7.43183,5.95839 3.64557,2.17211 "/>
     <polygon id="_360204400" class="fil1" points="3.82068,2.12994 7.60694,5.91621 7.50162,5.94158 3.71535,2.15531 "/>
     <polygon id="_360204448" class="fil1" points="3.64557,2.17211 7.43183,5.95839 7.35719,5.97636 3.57092,2.19009 "/>
     <polygon id="_360203848" class="fil1" points="3.62478,2.28255 7.41105,6.06882 7.2874,5.99317 3.50113,2.2069 "/>
     <polygon id="_360203800" class="fil1" points="3.50113,2.2069 7.2874,5.99317 7.13836,6.02906 3.35209,2.24279 "/>
     <polygon id="_360203824" class="fil1" points="3.65124,2.23924 7.43751,6.02551 7.41105,6.06882 3.62478,2.28255 "/>
     <polygon id="_360203944" class="fil1" points="3.79568,2.20445 7.58194,5.99072 7.55548,6.03404 3.76922,2.24777 "/>
     <polygon id="_360204208" class="fil1" points="2.19465,3.22494 5.98092,7.01121 5.99785,7.10611 2.21158,3.31983 "/>
     <polygon id="_360204736" class="fil1" points="2.16412,2.98874 5.95039,6.77501 5.98387,6.83657 2.1976,3.0503 "/>
     <polygon id="_360204568" class="fil1" points="2.19552,2.88248 5.98178,6.66875 6.01526,6.73031 2.229,2.94404 "/>
     <polygon id="_360205240" class="fil1" points="2.29661,2.87985 6.08288,6.66613 6.06001,6.74353 2.27374,2.95726 "/>
     <polygon id="_360204544" class="fil1" points="2.3353,2.92378 6.12157,6.71005 6.13968,6.74334 2.35341,2.95707 "/>
     <polygon id="_360204520" class="fil1" points="2.35341,2.95707 6.13968,6.74334 6.04482,6.79493 2.25856,3.00866 "/>
     <polygon id="_360204592" class="fil1" points="2.25856,3.00866 6.04482,6.79493 6.02861,6.84979 2.24235,3.06352 "/>
     <polygon id="_360204808" class="fil1" points="2.30391,3.03004 6.09018,6.81631 6.10828,6.8496 2.32202,3.06333 "/>
     <polygon id="_360205024" class="fil1" points="2.32202,3.06333 6.10828,6.8496 6.01343,6.90119 2.22716,3.11492 "/>
     <polygon id="_360205120" class="fil1" points="2.22716,3.11492 6.01343,6.90119 5.98092,7.01121 2.19465,3.22494 "/>
     <polygon id="_360204904" class="fil1" points="2.42696,3.35905 6.21323,7.14532 6.10207,7.17209 2.31581,3.38582 "/>
     <polygon id="_360205144" class="fil1" points="1.74487,2.98299 5.53114,6.76926 5.60103,6.84281 1.81476,3.05654 "/>
     <polygon id="_360205864" class="fil1" points="1.85439,2.98729 5.64066,6.77356 5.63791,6.88162 1.85164,3.09535 "/>
     <polygon id="_360205336" class="fil1" points="2.26876,3.53422 6.05503,7.32049 6.13364,7.40321 2.34737,3.61694 "/>
     <polygon id="_360205600" class="fil1" points="1.85164,3.09535 5.63791,6.88162 5.67735,6.92313 1.89109,3.13686 "/>
     <polygon id="_360205360" class="fil1" points="1.93072,3.06761 5.71699,6.85388 5.71424,6.96194 1.92797,3.17567 "/>
     <polygon id="_360205528" class="fil1" points="2.38425,3.65575 6.17052,7.44202 6.20997,7.48353 2.4237,3.69726 "/>
     <polygon id="_360205888" class="fil1" points="1.92797,3.17567 5.71424,6.96194 5.7855,7.03693 1.99923,3.25065 "/>
     <polygon id="_360205984" class="fil1" points="2.31581,3.38582 6.10207,7.17209 6.02806,7.23444 2.24179,3.44817 "/>
     <polygon id="_360205936" class="fil1" points="2.46058,3.73607 6.24685,7.52234 6.30253,7.58093 2.51626,3.79466 "/>
     <polygon id="_360205480" class="fil1" points="1.81797,3.12735 5.60424,6.91362 5.49616,6.91086 1.70989,3.12459 "/>
     <polygon id="_360205672" class="fil1" points="2.01965,3.50045 5.80591,7.28672 5.71272,7.2659 1.92646,3.47963 "/>
     <polygon id="_360206080" class="fil1" points="1.8943,3.20767 5.68056,6.99394 5.57248,6.99118 1.78622,3.20491 "/>
     <polygon id="_360206248" class="fil1" points="2.24146,3.57305 6.02773,7.35932 5.93201,7.32469 2.14574,3.53842 "/>
     <polygon id="_360206560" class="fil1" points="2.14574,3.53842 5.93201,7.32469 5.8676,7.39475 2.08133,3.60848 "/>
     <polygon id="_360206632" class="fil1" points="2.35052,3.68781 6.13678,7.47408 6.135,7.54425 2.34873,3.75798 "/>
     <polygon id="_360206368" class="fil1" points="2.34873,3.75798 6.135,7.54425 6.09715,7.54326 2.31089,3.75699 "/>
     <polygon id="_360206464" class="fil1" points="1.92646,3.47963 5.71272,7.2659 5.62137,7.28791 1.8351,3.50163 "/>
     <polygon id="_360206680" class="fil1" points="1.78305,3.51417 5.56932,7.30044 5.51365,7.31385 1.72738,3.52757 "/>
     <polygon id="_360206104" class="fil1" points="1.67533,3.54011 5.4616,7.32638 5.36308,7.35011 1.57681,3.56383 "/>
     <polygon id="_360206392" class="fil1" points="1.66443,3.49486 5.4507,7.28113 5.39085,7.24451 1.60458,3.45824 "/>
     <polygon id="_360206200" class="fil1" points="1.72738,3.52757 5.51365,7.31385 5.45727,7.40599 1.671,3.61972 "/>
     <polygon id="_360206344" class="fil1" points="1.671,3.61972 5.45727,7.40599 5.42496,7.38625 1.6387,3.59998 "/>
     <polygon id="_360207424" class="fil1" points="1.96331,3.8433 5.74958,7.62957 5.68802,7.66306 1.90175,3.87678 "/>
     <polygon id="_360207520" class="fil1" points="1.97936,3.95365 5.76563,7.73992 5.72088,7.7267 1.93461,3.94043 "/>
     <polygon id="_360207400" class="fil1" points="1.77215,3.46892 5.55842,7.25519 5.49857,7.21857 1.7123,3.4323 "/>
     <polygon id="_360206992" class="fil1" points="1.77872,3.59378 5.56499,7.38005 5.53269,7.36031 1.74642,3.57404 "/>
     <polygon id="_360207112" class="fil1" points="2.42684,3.76813 6.21311,7.5544 6.21132,7.62457 2.42506,3.8383 "/>
     <polygon id="_360206968" class="fil1" points="2.08133,3.60848 5.8676,7.39475 5.8409,7.48512 2.05463,3.69885 "/>
     <polygon id="_360207040" class="fil1" points="1.8351,3.50163 5.62137,7.28791 5.56499,7.38005 1.77872,3.59378 "/>
     <polygon id="_360207328" class="fil1" points="1.9947,3.73704 5.78097,7.52331 5.71941,7.55679 1.93315,3.77052 "/>
     <polygon id="_360207088" class="fil1" points="2.02324,3.80511 5.80951,7.59138 5.8611,7.68624 2.07483,3.89997 "/>
     <polygon id="_360207184" class="fil1" points="2.00806,3.85652 5.79432,7.64279 5.76563,7.73992 1.97936,3.95365 "/>
     <polygon id="_360207304" class="fil1" points="2.07483,3.89997 5.8611,7.68624 5.8278,7.70435 2.04154,3.91808 "/>
     <polygon id="_360208168" class="fil1" points="2.03945,3.75026 5.82572,7.53653 5.80951,7.59138 2.02324,3.80511 "/>
     <polygon id="_360207640" class="fil1" points="2.10623,3.79371 5.8925,7.57998 5.8592,7.59809 2.07293,3.81182 "/>
     <polygon id="_360207904" class="fil1" points="2.05463,3.69885 5.8409,7.48512 5.8925,7.57998 2.10623,3.79371 "/>
     <polygon id="_360207664" class="fil1" points="2.51626,3.79466 6.30253,7.58093 6.26875,7.61295 2.48248,3.82668 "/>
     <polygon id="_360207832" class="fil1" points="2.42506,3.8383 6.21132,7.62457 6.17348,7.62358 2.38721,3.83731 "/>
     <polygon id="_360208192" class="fil1" points="2.45539,3.61969 6.24166,7.40596 6.24067,7.44381 2.4544,3.65754 "/>
     <polygon id="_360208288" class="fil1" points="2.24179,3.44817 6.02806,7.23444 6.05503,7.32049 2.26876,3.53422 "/>
     <polygon id="_360208240" class="fil1" points="2.4544,3.65754 6.24067,7.44381 6.17052,7.44202 2.38425,3.65575 "/>
     <polygon id="_360207784" class="fil1" points="2.53172,3.70001 6.31798,7.48628 6.31699,7.52413 2.53072,3.73785 "/>
     <polygon id="_360207976" class="fil1" points="2.53072,3.73785 6.31699,7.52413 6.24685,7.52234 2.46058,3.73607 "/>
     <polygon id="_360208384" class="fil1" points="2.61252,3.21548 6.39879,7.00176 6.36212,7.06169 2.57585,3.27541 "/>
     <polygon id="_360208552" class="fil1" points="2.6545,3.25648 6.44077,7.04275 6.45155,7.08793 2.66528,3.30166 "/>
     <polygon id="_360208864" class="fil1" points="2.66528,3.30166 6.45155,7.08793 6.373,7.10685 2.58673,3.32057 "/>
     <polygon id="_360208936" class="fil1" points="2.5048,3.24143 6.29107,7.0277 6.2544,7.08763 2.46813,3.30135 "/>
     <polygon id="_360208672" class="fil1" points="2.6269,3.38954 6.41317,7.17581 6.32094,7.11938 2.53468,3.33311 "/>
     <polygon id="_360208768" class="fil1" points="2.53468,3.33311 6.32094,7.11938 6.26528,7.13279 2.47901,3.34652 "/>
     <polygon id="_360208984" class="fil1" points="2.53892,3.38317 6.32519,7.16944 6.30545,7.20175 2.51918,3.41548 "/>
     <polygon id="_360208408" class="fil1" points="2.64664,3.35723 6.43291,7.1435 6.41317,7.17581 2.6269,3.38954 "/>
     <polygon id="_360208696" class="fil1" points="2.51918,3.41548 6.30545,7.20175 6.21323,7.14532 2.42696,3.35905 "/>
     <polygon id="_360208504" class="fil1" points="4.53077,3.15371 8.31704,6.93998 8.27175,7.09326 4.48548,3.30698 "/>
     <polygon id="_360208648" class="fil1" points="4.33059,3.15891 8.11685,6.94518 8.18315,7.06708 4.39689,3.28081 "/>
     <polygon id="_360209728" class="fil1" points="4.45541,3.40878 8.24168,7.19505 8.20958,7.30367 4.42331,3.5174 "/>
     <polygon id="_360209824" class="fil1" points="4.64324,3.30662 8.42951,7.09289 8.24168,7.19505 4.45541,3.40878 "/>
     <polygon id="_360209704" class="fil1" points="4.26842,3.36932 8.05469,7.15559 8.12099,7.27749 4.33472,3.49122 "/>
     <polygon id="_360209296" class="fil1" points="4.39324,3.61919 8.17951,7.40546 8.11515,7.6233 4.32888,3.83703 "/>
     <polygon id="_360209416" class="fil1" points="4.32888,3.83703 8.11515,7.6233 8.14866,7.81121 4.36239,4.02494 "/>
     <polygon id="_360209272" class="fil1" points="4.58108,3.51703 8.36735,7.3033 8.17951,7.40546 4.39324,3.61919 "/>
     <polygon id="_360209344" class="fil1" points="4.60739,3.24069 8.39366,7.02696 8.42951,7.09289 4.64324,3.30662 "/>
     <polygon id="_360209632" class="fil1" points="5.15633,3.81831 8.94259,7.60459 8.86999,7.72326 5.08372,3.93699 "/>
     <polygon id="_360209392" class="fil1" points="4.54522,3.4511 8.33149,7.23737 8.36735,7.3033 4.58108,3.51703 "/>
     <polygon id="_360209488" class="fil1" points="4.94302,3.86968 8.72929,7.65595 8.65668,7.77463 4.87041,3.98835 "/>
     <polygon id="_360209608" class="fil1" points="5.1848,4.16296 8.97107,7.94924 8.78846,7.8375 5.00219,4.05123 "/>
     <polygon id="_360210472" class="fil1" points="5.00219,4.05123 8.78846,7.8375 8.67822,7.86405 4.89195,4.07778 "/>
     <polygon id="_360209944" class="fil1" points="5.01057,4.15036 8.79684,7.93663 8.75777,8.00061 4.9715,4.21433 "/>
     <polygon id="_360210208" class="fil1" points="4.9715,4.21433 8.75777,8.00061 8.57515,7.88887 4.78888,4.1026 "/>
     <polygon id="_360209968" class="fil1" points="4.78888,4.1026 8.57515,7.88887 8.35505,7.94187 4.56878,4.1556 "/>
     <polygon id="_360210136" class="fil1" points="3.43823,3.35794 7.2245,7.14421 7.3629,7.28985 3.57663,3.50357 "/>
     <polygon id="_360210496" class="fil1" points="3.65511,3.36646 7.44138,7.15273 7.43593,7.3667 3.64966,3.58043 "/>
     <polygon id="_360210592" class="fil1" points="4.47563,4.44946 8.2619,8.23573 8.41756,8.39953 4.63129,4.61326 "/>
     <polygon id="_360210544" class="fil1" points="3.64966,3.58043 7.43593,7.3667 7.51404,7.44889 3.72777,3.66262 "/>
     <polygon id="_360210088" class="fil1" points="3.80625,3.5255 7.59252,7.31178 7.58707,7.52574 3.8008,3.73947 "/>
     <polygon id="_360210280" class="fil1" points="4.70432,4.69011 8.49059,8.47638 8.5687,8.55857 4.78243,4.7723 "/>
     <polygon id="_360210688" class="fil1" points="3.8008,3.73947 7.58707,7.52574 7.72818,7.67423 3.94191,3.88796 "/>
     <polygon id="_360210856" class="fil1" points="4.56878,4.1556 8.35505,7.94187 8.20848,8.06535 4.42222,4.27907 "/>
     <polygon id="_360211168" class="fil1" points="4.85546,4.84915 8.64173,8.63543 8.75199,8.75145 4.96572,4.96518 "/>
     <polygon id="_360211240" class="fil1" points="3.58298,3.64379 7.36925,7.43006 7.15524,7.4246 3.36897,3.63833 "/>
     <polygon id="_360210976" class="fil1" points="3.98234,4.38259 7.76861,8.16886 7.58408,8.12764 3.79781,4.34137 "/>
     <polygon id="_360211072" class="fil1" points="3.73412,3.80283 7.52039,7.5891 7.30637,7.58365 3.52011,3.79738 "/>
     <polygon id="_360211288" class="fil1" points="4.42156,4.52635 8.20783,8.31263 8.0183,8.24405 4.23203,4.45778 "/>
     <polygon id="_360210712" class="fil1" points="4.23203,4.45778 8.0183,8.24405 7.89077,8.38277 4.1045,4.5965 "/>
     <polygon id="_360211000" class="fil1" points="4.63751,4.75359 8.42378,8.53987 8.42024,8.67882 4.63397,4.89255 "/>
     <polygon id="_360210808" class="fil1" points="4.63397,4.89255 8.42024,8.67882 8.3453,8.67686 4.55904,4.89059 "/>
     <polygon id="_360210952" class="fil1" points="3.79781,4.34137 7.58408,8.12764 7.40318,8.1712 3.61691,4.38493 "/>
     <polygon id="_360212032" class="fil1" points="3.51384,4.40975 7.30011,8.19602 7.18987,8.22257 3.4036,4.4363 "/>
     <polygon id="_360212128" class="fil1" points="3.30054,4.46112 7.0868,8.24739 6.89172,8.29437 3.10545,4.5081 "/>
     <polygon id="_360212008" class="fil1" points="3.27896,4.37152 7.06522,8.15779 6.9467,8.08528 3.16044,4.29901 "/>
     <polygon id="_360211600" class="fil1" points="3.4036,4.4363 7.18987,8.22257 7.07823,8.40504 3.29196,4.61876 "/>
     <polygon id="_360211720" class="fil1" points="3.29196,4.61876 7.07823,8.40504 7.01426,8.36596 3.22799,4.57969 "/>
     <polygon id="_360211576" class="fil1" points="3.87078,5.06149 7.65705,8.84776 7.53515,8.91406 3.74888,5.12779 "/>
     <polygon id="_360211648" class="fil1" points="3.90256,5.28 7.68882,9.06627 7.60023,9.04009 3.81396,5.25382 "/>
     <polygon id="_360211936" class="fil1" points="3.49226,4.32015 7.27853,8.10643 7.16001,8.03391 3.37374,4.24764 "/>
     <polygon id="_360211696" class="fil1" points="3.50527,4.56739 7.29154,8.35367 7.22757,8.31459 3.4413,4.52831 "/>
     <polygon id="_360211792" class="fil1" points="4.78865,4.91264 8.57492,8.69891 8.57138,8.83786 4.78511,5.05159 "/>
     <polygon id="_360211912" class="fil1" points="4.1045,4.5965 7.89077,8.38277 7.83789,8.56174 4.05162,4.77547 "/>
     <polygon id="_360212776" class="fil1" points="3.61691,4.38493 7.40318,8.1712 7.29154,8.35367 3.50527,4.56739 "/>
     <polygon id="_360212248" class="fil1" points="3.93295,4.85108 7.71922,8.63735 7.59731,8.70365 3.81105,4.91738 "/>
     <polygon id="_360212512" class="fil1" points="3.98946,4.98588 7.77572,8.77215 7.87788,8.95999 4.09161,5.17372 "/>
     <polygon id="_360212272" class="fil1" points="3.95938,5.08767 7.74565,8.87394 7.68882,9.06627 3.90256,5.28 "/>
     <polygon id="_360212440" class="fil1" points="4.09161,5.17372 7.87788,8.95999 7.81195,8.99585 4.02568,5.20957 "/>
     <polygon id="_360212800" class="fil1" points="4.02155,4.87725 7.80781,8.66352 7.77572,8.77215 3.98946,4.98588 "/>
     <polygon id="_360212896" class="fil1" points="4.15378,4.9633 7.94005,8.74957 7.87411,8.78543 4.08785,4.99916 "/>
     <polygon id="_360212848" class="fil1" points="4.05162,4.77547 7.83789,8.56174 7.94005,8.74957 4.15378,4.9633 "/>
     <polygon id="_360212392" class="fil1" points="4.96572,4.96518 8.75199,8.75145 8.68509,8.81485 4.89883,5.02857 "/>
     <polygon id="_360212584" class="fil1" points="4.78511,5.05159 8.57138,8.83786 8.49644,8.8359 4.71017,5.04963 "/>
     <polygon id="_360212992" class="fil1" points="4.84518,4.61871 8.63145,8.40498 8.62948,8.47993 4.84322,4.69365 "/>
     <polygon id="_360213160" class="fil1" points="4.42222,4.27907 8.20848,8.06535 8.2619,8.23573 4.47563,4.44946 "/>
     <polygon id="_360213472" class="fil1" points="4.84322,4.69365 8.62948,8.47993 8.49059,8.47638 4.70432,4.69011 "/>
     <polygon id="_360213544" class="fil1" points="4.99632,4.77776 8.78259,8.56403 8.78063,8.63897 4.99436,4.8527 "/>
     <polygon id="_360213280" class="fil1" points="4.99436,4.8527 8.78063,8.63897 8.64173,8.63543 4.85546,4.84915 "/>
     <polygon id="_360213376" class="fil1" points="5.2608,3.98895 9.04707,7.77522 8.89152,7.81268 5.10526,4.02641 "/>
     <polygon id="_360213592" class="fil1" points="5.22388,4.09899 9.01015,7.88526 8.97107,7.94924 5.1848,4.16296 "/>
     <polygon id="_360213088" class="fil1" points="5.23945,3.89948 9.02572,7.68576 9.04707,7.77522 5.2608,3.98895 "/>
     <polygon id="_360213640" class="fil1" points="4.95776,1.61728 8.74403,5.40355 8.73151,5.51681 4.94524,1.73054 "/>
     <polygon id="_360213424" class="fil1" points="4.94524,1.73054 8.73151,5.51681 8.70939,5.71693 4.92313,1.93065 "/>
     <polygon id="_360213328" class="fil1" points="5.19632,2.08216 8.98259,5.86843 8.87815,5.91426 5.09189,2.12799 "/>
     <polygon id="_360213808" class="fil1" points="5.09189,2.12799 8.87815,5.91426 8.69393,5.99511 4.90766,2.20883 "/>
     <polygon id="_360213736" class="fil1" points="4.90766,2.20883 8.69393,5.99511 8.69736,6.19369 4.91109,2.40742 "/>
     <polygon id="_360213760" class="fil1" points="4.91109,2.40742 8.69736,6.19369 8.69932,6.30753 4.91306,2.52126 "/>
     <polygon id="_360214144" class="fil1" points="4.91306,2.52126 8.69932,6.30753 8.60758,6.24012 4.82131,2.45385 "/>
     <polygon id="_360214072" class="fil1" points="4.82131,2.45385 8.60758,6.24012 8.44531,6.1209 4.65905,2.33463 "/>
     <polygon id="_360213856" class="fil1" points="4.42578,2.18215 8.21204,5.96842 8.03842,5.87214 4.25215,2.08587 "/>
     <polygon id="_360214480" class="fil1" points="4.48879,2.43688 8.27506,6.22315 8.17741,6.2818 4.39114,2.49553 "/>
     <polygon id="_360214120" class="fil1" points="4.25215,2.08587 8.03842,5.87214 7.93884,5.81692 4.15257,2.03065 "/>
     <polygon id="_360214240" class="fil1" points="4.65905,2.33463 8.44531,6.1209 8.27506,6.22315 4.48879,2.43688 "/>
     <polygon id="_360213952" class="fil1" points="2.42852,4.21902 6.21478,8.00529 6.20226,8.11856 2.416,4.33228 "/>
     <polygon id="_360215032" class="fil1" points="2.416,4.33228 6.20226,8.11856 6.18015,8.31867 2.39388,4.5324 "/>
     <polygon id="_360215176" class="fil1" points="2.66708,4.6839 6.45335,8.47017 6.34891,8.516 2.56264,4.72973 "/>
     <polygon id="_360214624" class="fil1" points="2.56264,4.72973 6.34891,8.516 6.16469,8.59685 2.37842,4.81058 "/>
     <polygon id="_360215008" class="fil1" points="2.37842,4.81058 6.16469,8.59685 6.16811,8.79543 2.38185,5.00916 "/>
     <polygon id="_360214936" class="fil1" points="2.38185,5.00916 6.16811,8.79543 6.17008,8.90927 2.38381,5.123 "/>
     <polygon id="_360214552" class="fil1" points="2.38381,5.123 6.17008,8.90927 6.07834,8.84187 2.29207,5.05559 "/>
     <polygon id="_360214576" class="fil1" points="2.29207,5.05559 6.07834,8.84187 5.91607,8.72264 2.1298,4.93637 "/>
     <polygon id="_360214600" class="fil1" points="1.89653,4.78389 5.6828,8.57017 5.50917,8.47388 1.72291,4.68761 "/>
     <polygon id="_360214720" class="fil1" points="1.95955,5.03863 5.74581,8.8249 5.64816,8.88355 1.86189,5.09728 "/>
     <polygon id="_360214768" class="fil1" points="1.72291,4.68761 5.50917,8.47388 5.40959,8.41866 1.62333,4.63239 "/>
     <polygon id="_360214864" class="fil1" points="2.1298,4.93637 5.91607,8.72264 5.74581,8.8249 1.95955,5.03863 "/>
    </g>
    <path id="_357782024" class="fil1" d="M3.70077 2.09476l0.105449 -0.0253937 0.0144606 0.0605787 -0.105327 0.0253661 0.0803268 0.0491457 -0.0264606 0.043315 -0.12365 -0.0756535 -0.0746457 0.0179764 0.0803228 0.0491457 -0.0264606 0.043315 -0.123654 -0.0756535 -0.149035 0.0358898 -0.0992402 0.0835984 0.0361654 0.11537 0.105406 0.110913 0.144827 0.00369291 -0.00133071 0.0507441 -0.0940472 -0.00239764 0.0528898 0.0556535 0.144827 0.00369291 -0.00133071 0.0507402 -0.0940472 -0.00239764 0.0746575 0.078563 -0.0452953 0.0429252 -0.0745984 -0.0785 -0.00239764 0.0940866 -0.0507441 -0.00133071 0.00369291 -0.144795 -0.0528898 -0.0556535 -0.00239764 0.0940866 -0.0507441 -0.00132677 0.00369291 -0.144795 -0.0967677 -0.101831 -0.128346 -0.0464331 -0.0863543 0.0939331 -0.0357992 0.121173 0.0691732 0.127189 -0.0446457 0.0242795 -0.0448898 -0.0825433 -0.0217323 0.0735512 0.0691732 0.127185 -0.0446417 0.0242835 -0.0448937 -0.0825472 -0.0384764 0.130232 -0.0599921 -0.0177244 0.0384764 -0.130232 -0.0825433 0.0448937 -0.0242795 -0.0446417 0.127189 -0.0691732 0.0217283 -0.0735512 -0.0825433 0.0448937 -0.0242795 -0.0446417 0.127185 -0.0691772 0.0357677 -0.121055 -0.022689 -0.12724 -0.124949 -0.0279134 -0.122492 0.0295 -0.0755866 0.123547 -0.0433189 -0.0264606 0.0491181 -0.0802795 -0.0746417 0.0179764 -0.0755906 0.123547 -0.0433189 -0.0264606 0.0491181 -0.0802795 -0.132091 0.031811 -0.0146969 -0.0606496 0.132181 -0.0318307 -0.080252 -0.0491024 0.0264606 -0.043315 0.123579 0.0756102 0.0746457 -0.0179764 -0.080252 -0.0491024 0.0264606 -0.043315 0.123579 0.0756102 0.122398 -0.0294764 0.0991417 -0.0835157 -0.0403504 -0.128717 -0.0872165 -0.0917756 -0.144909 -0.00368898 0.00133071 -0.0507402 0.0941339 0.00239764 -0.0528898 -0.0556575 -0.144913 -0.00369291 0.00133071 -0.0507402 0.0941299 0.00239764 -0.093622 -0.0985197 0.045063 -0.0429961 0.0937126 0.0986142 0.00239764 -0.0941732 0.0507402 0.00133071 -0.00368898 0.144878 0.0528898 0.0556575 0.00239764 -0.0941732 0.0507402 0.00132677 -0.00368898 0.144882 0.0955472 0.100543 0.115646 0.0418425 0.0863543 -0.0939331 0.0436142 -0.147622 -0.0691732 -0.127189 0.0446457 -0.0242795 0.0448898 0.0825433 0.0217323 -0.0735472 -0.0691732 -0.127189 0.0446417 -0.0242795 0.0448937 0.0825433 0.0306614 -0.103783 0.0599921 0.0177244 -0.0306614 0.103783 0.0825433 -0.0448937 0.0242795 0.0446457 -0.127189 0.0691732 -0.0217283 0.0735472 0.0825433 -0.0448937 0.0242795 0.0446457 -0.127189 0.0691732 -0.0435787 0.147504 0.022689 0.127236 0.125083 0.0279449 0.149118 -0.0359134 0.0756378 -0.123618 0.0433189 0.0264606 -0.0491693 0.0803543 0.0746457 -0.0179764 0.0756378 -0.123622 0.043315 0.0264606 -0.0491654 0.0803543zm-1.50611 1.13018l0.0169252 0.0948976 0.0932874 0.0208386 0.111213 -0.0267835 0.0564173 -0.0922008 0.0323071 0.0197362 -0.0366693 0.0599291 0.0556693 -0.0134055 0.0564134 -0.0922008 0.0323071 0.0197362 -0.0366693 0.0599291 0.0786457 -0.018937 0.0107835 0.0451811 -0.0785551 0.0189173 0.0599094 0.0366535 -0.0197362 0.0323071 -0.0922244 -0.0564252 -0.0556654 0.0134055 0.0599055 0.0366535 -0.0197362 0.0323071 -0.0922205 -0.0564252 -0.111154 0.0267677 -0.0740197 0.0623504 0.0269764 0.0860512 0.0786102 0.0827165 0.108016 0.00275591 -0.000992126 0.0378425 -0.0701457 -0.0017874 0.0394488 0.0415079 0.108016 0.00275591 -0.000992126 0.0378425 -0.0701417 -0.0017874 0.0556811 0.0585945 -0.0337835 0.0320157 -0.0556378 -0.0585472 -0.0017874 0.0701693 -0.0378425 -0.000992126 0.00274803 -0.107988 -0.0394449 -0.0415079 -0.0017874 0.0701693 -0.0378425 -0.000992126 0.00274803 -0.107988 -0.0721732 -0.0759528 -0.0957165 -0.034626 -0.0644094 0.0700591 -0.0267008 0.0903701 0.0515945 0.0948622 -0.0332992 0.0181102 -0.0334803 -0.0615669 -0.0162087 0.0548543 0.0515906 0.0948622 -0.0332953 0.0181102 -0.0334803 -0.061563 -0.0286969 0.0971299 -0.0447441 -0.0132205 0.0286969 -0.0971299 -0.061563 0.0334843 -0.0181063 -0.0332992 0.0948583 -0.0515945 0.0162047 -0.0548504 -0.0615591 0.0334803 -0.0181102 -0.0332953 0.0948583 -0.0515906 0.0266772 -0.0902874 -0.0169252 -0.0948976 -0.093189 -0.0208189 -0.0913543 0.0220039 -0.056378 0.0921417 -0.0323071 -0.0197362 0.0366339 -0.059874 -0.0556732 0.0134094 -0.056374 0.0921417 -0.0323071 -0.0197362 0.0366339 -0.0598701 -0.0985197 0.0237244 -0.0109567 -0.0452362 0.0985787 -0.0237402 -0.0598504 -0.036622 0.0197323 -0.0323031 0.0921654 0.0563898 0.0556732 -0.0134055 -0.0598504 -0.036622 0.0197323 -0.0323071 0.0921693 0.0563937 0.0912913 -0.0219882 0.0739409 -0.0622835 -0.0300984 -0.096 -0.0650433 -0.0684449 -0.108079 -0.00275591 0.000992126 -0.0378425 0.0702087 0.0017874 -0.0394488 -0.0415079 -0.108079 -0.00275591 0.000992126 -0.0378425 0.0702087 0.0017874 -0.0698307 -0.0734803 0.0336102 -0.032063 0.0698898 0.0735472 0.00179134 -0.0702402 0.0378425 0.000992126 -0.00275197 0.108059 0.0394449 0.0415079 0.00179134 -0.0702362 0.0378425 0.000988189 -0.00275197 0.108059 0.0712598 0.0749843 0.086252 0.0312087 0.0644055 -0.0700551 0.0325276 -0.110106 -0.0515866 -0.0948543 0.0332953 -0.0181102 0.0334803 0.0615591 0.0162047 -0.0548504 -0.0515866 -0.0948583 0.0332953 -0.0181102 0.0334803 0.0615591 0.0228701 -0.0774016 0.0447441 0.0132205 -0.0228701 0.0774016 0.061563 -0.0334803 0.0181102 0.0332953 -0.0948583 0.0515906 -0.0162087 0.0548583 0.061563 -0.0334843 0.0181063 0.0332953 -0.0948583 0.0515906 -0.0325039 0.110016zm2.41274 0.015748l0.0358543 0.0659331 -0.187835 0.102157 -0.0320945 0.108622 0.121906 -0.0662992 0.0358583 0.0659291 -0.187835 0.102161 -0.0643622 0.217843 0.0335079 0.187909 0.184728 0.0412677 0.220228 -0.0530315 0.111705 -0.182571 0.0639724 0.0390748 -0.0726102 0.118673 0.11024 -0.0265472 0.111701 -0.182571 0.0639724 0.0390787 -0.0726063 0.118673 0.155728 -0.0375039 0.0213543 0.0894685 -0.155547 0.0374567 0.118626 0.0725827 -0.0390787 0.0639724 -0.182614 -0.111732 -0.11024 0.0265472 0.118626 0.0725827 -0.0390748 0.0639724 -0.182622 -0.111732 -0.220094 0.053 -0.146567 0.123472 0.0534173 0.170386 0.155657 0.163799 0.21389 0.00545276 -0.00196457 0.0749409 -0.138894 -0.00354331 0.0781063 0.0821929 0.21389 0.00545669 -0.00196063 0.074937 -0.138898 -0.00354331 0.11026 0.116028 -0.0668937 0.0633937 -0.110177 -0.115937 -0.00353937 0.138953 -0.074937 -0.00196063 0.00545276 -0.213839 -0.0781142 -0.0821969 -0.00353937 0.138953 -0.074937 -0.00196063 0.00544882 -0.213839 -0.142921 -0.150394 -0.189535 -0.0685748 -0.127528 0.138717 -0.052878 0.178972 0.102157 0.187835 -0.0659331 0.0358583 -0.0662992 -0.121909 -0.0320906 0.108626 0.102157 0.187839 -0.0659331 0.0358583 -0.0662992 -0.121906 -0.0568268 0.192331 -0.0885945 -0.0261772 0.0568228 -0.192335 -0.121902 0.0663031 -0.0358583 -0.0659291 0.187835 -0.102157 0.0320945 -0.108626 -0.121906 0.0662992 -0.0358583 -0.0659291 0.187835 -0.102157 0.0528228 -0.178783 -0.0335079 -0.187917 -0.184528 -0.0412244 -0.180902 0.0435669 -0.111638 0.182461 -0.0639724 -0.0390787 0.0725433 -0.118563 -0.11024 0.0265472 -0.111638 0.182465 -0.0639724 -0.0390787 0.0725433 -0.118563 -0.195083 0.0469803 -0.0217047 -0.0895709 0.195209 -0.0470118 -0.11852 -0.0725118 0.0390787 -0.0639724 0.182512 0.111665 0.110236 -0.0265472 -0.11852 -0.0725157 0.0390787 -0.0639724 0.182508 0.111665 0.180768 -0.0435315 0.146413 -0.123339 -0.0595906 -0.190091 -0.128803 -0.135539 -0.214012 -0.00545276 0.00196457 -0.0749409 0.139016 0.00354331 -0.0781063 -0.0821929 -0.214012 -0.00545669 0.00196063 -0.074937 0.13902 0.00354331 -0.138268 -0.1455 0.0665512 -0.0634961 0.138398 0.145634 0.00354331 -0.139079 0.074937 0.00196063 -0.00545276 0.213969 0.0781142 0.0821969 0.00354331 -0.139083 0.074937 0.00196457 -0.00545276 0.213965 0.141114 0.148492 0.170787 0.0617913 0.127531 -0.13872 0.0644134 -0.21802 -0.102157 -0.187839 0.0659331 -0.0358543 0.0662992 0.121902 0.0320906 -0.108622 -0.102154 -0.187835 0.0659291 -0.0358583 0.0662992 0.121906 0.0452835 -0.153276 0.0885984 0.0261772 -0.0452835 0.153272 0.121906 -0.0662992zm-0.0798031 -1.58173l0.162268 0.119228 0.170256 -0.10226 0.0976496 -0.0586457 -0.0125197 0.113264 -0.0221142 0.200114 0.173622 0.0962874 0.0995748 0.0552205 -0.104437 0.0458307 -0.184224 0.0808425 0.00342913 0.198583 0.00196457 0.113843 -0.0917402 -0.0674094 -0.162268 -0.119224 -0.170256 0.102256 -0.0976535 0.0586496 0.0125197 -0.113268 0.0221181 -0.200114 -0.173626 -0.0962835 -0.0995787 -0.0552205 0.104445 -0.0458307 0.184224 -0.0808425 -0.00342913 -0.198583 -0.0019685 -0.113843 0.0917441 0.0674055zm-2.52924 2.60174l0.162268 0.119228 0.170256 -0.10226 0.0976496 -0.0586496 -0.0125197 0.113268 -0.0221142 0.200114 0.173626 0.0962835 0.0995709 0.0552205 -0.104437 0.0458307 -0.184224 0.0808465 0.00342913 0.198579 0.00196457 0.113843 -0.0917402 -0.0674055 -0.162268 -0.119224 -0.170256 0.102256 -0.0976535 0.0586496 0.0125236 -0.113268 0.0221142 -0.200114 -0.173626 -0.0962835 -0.0995787 -0.0552205 0.104445 -0.0458346 0.184224 -0.0808386 -0.00342913 -0.198587 -0.0019685 -0.113843 0.0917441 0.0674094z"/>
   </g>
  </g>
  <path class="fil2" d="M3.41333 -3.93701e-006c1.88513,0 3.41333,1.5282 3.41333,3.41333 0,1.88513 -1.5282,3.41333 -3.41333,3.41333 -1.88513,0 -3.41333,-1.5282 -3.41333,-3.41333 0,-1.88513 1.5282,-3.41333 3.41333,-3.41333z"/>
  <polygon class="fil3" points="4.52759,1.65895 4.68985,1.77818 4.86011,1.67592 4.95776,1.61728 4.94524,1.73054 4.92313,1.93065 5.09675,2.02694 5.19632,2.08216 5.09189,2.12799 4.90766,2.20883 4.91109,2.40742 4.91306,2.52126 4.82131,2.45385 4.65905,2.33463 4.48879,2.43688 4.39114,2.49553 4.40366,2.38226 4.42578,2.18215 4.25215,2.08587 4.15257,2.03065 4.25702,1.98481 4.44124,1.90397 4.43781,1.70539 4.43584,1.59155 "/>
  <polygon class="fil3" points="1.99834,4.2607 2.16061,4.37993 2.33087,4.27767 2.42852,4.21902 2.416,4.33228 2.39388,4.5324 2.56751,4.62868 2.66708,4.6839 2.56264,4.72973 2.37842,4.81058 2.38185,5.00916 2.38381,5.123 2.29207,5.05559 2.1298,4.93637 1.95955,5.03863 1.86189,5.09728 1.87442,4.98401 1.89653,4.78389 1.72291,4.68761 1.62333,4.63239 1.72777,4.58656 1.912,4.50572 1.90857,4.30713 1.9066,4.19329 "/>
  <polygon class="fil4" points="4.3269,3.82591 4.36239,4.02494 4.55733,4.06849 4.64812,4.08878 4.57689,4.14878 4.42222,4.27907 4.48193,4.46955 4.50974,4.55826 4.42235,4.52664 4.23203,4.45778 4.09701,4.60465 4.03413,4.67304 4.01783,4.58163 3.98234,4.38259 3.78739,4.33904 3.69661,4.31876 3.76784,4.25876 3.92251,4.12846 3.8628,3.93798 3.83499,3.84928 3.92238,3.88089 4.1127,3.94975 4.24772,3.80289 4.3106,3.73449 "/>
  <polygon class="fil5" points="4.08785,4.99916 3.99034,4.81987 3.81105,4.91738 3.77519,4.85145 3.98744,4.73601 4.02041,4.71808 4.03834,4.75104 4.15378,4.9633 "/>
  <polygon class="fil5" points="4.02568,5.20957 3.92817,5.03028 3.74888,5.12779 3.71302,5.06186 3.92528,4.94642 3.95824,4.92849 3.97617,4.96146 4.09161,5.17372 "/>
  <polygon class="fil5" points="4.64324,3.30662 4.43099,3.42206 4.39802,3.43999 4.38009,3.40702 4.26466,3.19476 4.33059,3.15891 4.42809,3.3382 4.60739,3.24069 "/>
  <polygon class="fil5" points="4.58108,3.51703 4.36882,3.63247 4.33585,3.6504 4.31793,3.61743 4.20249,3.40517 4.26842,3.36932 4.36593,3.54861 4.54522,3.4511 "/>
  <path class="fil6" d="M4.53077 3.15371l-0.20485 0.69335 -0.0885984 -0.0261732 0.20485 -0.693354 0.0885984 0.0261772zm-0.423358 1.43293l-0.204854 0.693354 -0.0885945 -0.0261772 0.20485 -0.693354 0.0885984 0.0261772z"/>
  <polygon class="fil5" points="5.1848,4.16296 4.9787,4.03686 4.9467,4.01729 4.96626,3.98534 5.09235,3.77924 5.15633,3.81831 5.04978,3.99246 5.22388,4.09899 "/>
  <polygon class="fil5" points="4.9715,4.21433 4.76539,4.08823 4.7334,4.06865 4.75295,4.0367 4.87905,3.83061 4.94302,3.86968 4.83647,4.04383 5.01057,4.15036 "/>
  <path class="fil6" d="M5.2608 3.98895l-0.702886 0.169268 -0.0213543 -0.0894685 0.702886 -0.169268 0.0213543 0.0894685zm-1.45246 0.349878l-0.702886 0.169272 -0.0217047 -0.0895709 0.70289 -0.169272 0.0217008 0.0895709z"/>
  <polygon class="fil5" points="3.22799,4.57969 3.33455,4.40553 3.16044,4.29901 3.19952,4.23504 3.40562,4.36113 3.43761,4.38071 3.41807,4.41266 3.29196,4.61876 "/>
  <polygon class="fil5" points="3.4413,4.52831 3.54785,4.35417 3.37374,4.24764 3.41282,4.18367 3.61893,4.30977 3.65092,4.32934 3.63137,4.36129 3.50527,4.56739 "/>
  <polygon class="fil5" points="4.71017,5.04963 4.71633,4.80809 4.71728,4.77064 4.75478,4.7716 4.99632,4.77776 4.99436,4.8527 4.79031,4.84749 4.78511,5.05159 "/>
  <polygon class="fil5" points="4.55904,4.89059 4.56519,4.64904 4.56614,4.6116 4.60364,4.61256 4.84518,4.61871 4.84322,4.69365 4.63917,4.68845 4.63397,4.89255 "/>
  <path class="fil6" d="M4.89883 5.02857l-0.49735 -0.523358 0.0668976 -0.0633937 0.497346 0.523358 -0.0668937 0.0633937zm-1.01589 -1.06915l-0.511252 -0.537992 0.0665512 -0.0634961 0.511252 0.537988 -0.0665512 0.0635z"/>
  <polygon class="fil5" points="3.37093,3.56339 3.57497,3.56859 3.58017,3.3645 3.65511,3.36646 3.64896,3.608 3.648,3.64544 3.61051,3.64449 3.36897,3.63833 "/>
  <polygon class="fil5" points="3.52207,3.72244 3.72611,3.72764 3.73131,3.52354 3.80625,3.5255 3.8001,3.76704 3.79915,3.80449 3.76165,3.80353 3.52011,3.79738 "/>
  <polygon class="fil4" points="3.18831,2.01954 3.21235,2.15431 3.34435,2.1838 3.40581,2.19754 3.35759,2.23816 3.25285,2.32639 3.29329,2.45536 3.31212,2.51543 3.25295,2.49402 3.12407,2.44739 3.03265,2.54684 2.99007,2.59315 2.97904,2.53125 2.95501,2.39648 2.82301,2.36699 2.76154,2.35326 2.80977,2.31263 2.9145,2.22441 2.87407,2.09543 2.85524,2.03537 2.91441,2.05678 3.04328,2.1034 3.1347,2.00396 3.17728,1.95765 "/>
  <polygon class="fil5" points="3.02645,2.81397 2.96043,2.69257 2.83902,2.75859 2.81474,2.71395 2.95846,2.63578 2.98079,2.62365 2.99293,2.64596 3.07109,2.78969 "/>
  <polygon class="fil5" points="2.98436,2.95644 2.91833,2.83504 2.79693,2.90107 2.77265,2.85643 2.91637,2.77826 2.93869,2.76612 2.95083,2.78844 3.029,2.93216 "/>
  <polygon class="fil5" points="3.40252,1.66793 3.2588,1.74609 3.23647,1.75823 3.22433,1.73591 3.14617,1.59219 3.19081,1.56791 3.25684,1.68931 3.37824,1.62328 "/>
  <polygon class="fil5" points="3.36043,1.8104 3.2167,1.88856 3.19438,1.9007 3.18224,1.87838 3.10407,1.73466 3.14872,1.71038 3.21474,1.83178 3.33615,1.76575 "/>
  <path class="fil6" d="M3.32636 1.56439l-0.138709 0.46948 -0.0599882 -0.0177244 0.138705 -0.46948 0.0599921 0.0177244zm-0.286665 0.97026l-0.138705 0.46948 -0.0599921 -0.0177244 0.138709 -0.46948 0.0599882 0.0177244z"/>
  <polygon class="fil5" points="3.76922,2.24777 3.62966,2.16238 3.608,2.14913 3.62123,2.1275 3.70662,1.98794 3.74993,2.0144 3.67778,2.13232 3.79568,2.20445 "/>
  <polygon class="fil5" points="3.62478,2.28255 3.48523,2.19717 3.46356,2.18391 3.4768,2.16228 3.56219,2.02272 3.6055,2.04919 3.53335,2.1671 3.65124,2.23924 "/>
  <path class="fil6" d="M3.82068 2.12994l-0.475937 0.114618 -0.0144606 -0.0605827 0.475937 -0.114614 0.0144606 0.0605787zm-0.983488 0.236909l-0.475933 0.114618 -0.0146969 -0.0606496 0.475937 -0.114618 0.0146929 0.0606496z"/>
  <polygon class="fil5" points="2.44423,2.52994 2.51638,2.41202 2.39849,2.33989 2.42495,2.29657 2.5645,2.38195 2.58617,2.39521 2.57293,2.41684 2.48755,2.5564 "/>
  <polygon class="fil5" points="2.58866,2.49515 2.66081,2.37723 2.54292,2.3051 2.56938,2.26179 2.70894,2.34717 2.7306,2.36043 2.71736,2.38206 2.63198,2.52161 "/>
  <polygon class="fil5" points="3.44783,2.84814 3.452,2.68459 3.45265,2.65924 3.47804,2.65989 3.64159,2.66406 3.64026,2.7148 3.5021,2.71128 3.49858,2.84947 "/>
  <polygon class="fil5" points="3.3455,2.74045 3.34967,2.5769 3.35031,2.55155 3.3757,2.55219 3.53925,2.55636 3.53792,2.60711 3.39976,2.60358 3.39624,2.74178 "/>
  <path class="fil6" d="M3.57557 2.83389l-0.33676 -0.354374 0.0452953 -0.0429252 0.33676 0.354374 -0.0452953 0.0429252zm-0.687874 -0.723933l-0.346177 -0.364283 0.045063 -0.0429961 0.346173 0.364283 -0.0450591 0.0429961z"/>
  <polygon class="fil5" points="2.54102,1.84179 2.67918,1.84531 2.6827,1.70711 2.73344,1.70844 2.72927,1.872 2.72863,1.89735 2.70324,1.8967 2.53969,1.89253 "/>
  <polygon class="fil5" points="2.64335,1.94948 2.78152,1.953 2.78504,1.81481 2.83578,1.81613 2.83161,1.97969 2.83096,2.00504 2.80557,2.00439 2.64202,2.00022 "/>
  <polygon class="fil4" points="2.19365,3.21932 2.21158,3.31983 2.31003,3.34183 2.35587,3.35207 2.3199,3.38237 2.24179,3.44817 2.27194,3.54436 2.28599,3.58916 2.24186,3.57319 2.14574,3.53842 2.07756,3.61259 2.0458,3.64713 2.03757,3.60096 2.01965,3.50045 1.9212,3.47846 1.87535,3.46821 1.91132,3.43791 1.98944,3.37211 1.95928,3.27592 1.94524,3.23112 1.98937,3.24709 2.08548,3.28186 2.15367,3.20769 2.18542,3.17315 "/>
  <polygon class="fil5" points="2.07293,3.81182 2.02369,3.72128 1.93315,3.77052 1.91504,3.73722 2.02223,3.67893 2.03887,3.66987 2.04793,3.68652 2.10623,3.79371 "/>
  <polygon class="fil5" points="2.04154,3.91808 1.99229,3.82754 1.90175,3.87678 1.88364,3.84348 1.99083,3.78519 2.00748,3.77613 2.01654,3.79278 2.07483,3.89997 "/>
  <polygon class="fil5" points="2.35341,2.95707 2.24622,3.01537 2.22957,3.02443 2.22052,3.00778 2.16222,2.90059 2.19552,2.88248 2.24476,2.97302 2.3353,2.92378 "/>
  <polygon class="fil5" points="2.32202,3.06333 2.21483,3.12163 2.19818,3.13069 2.18912,3.11404 2.13083,3.00685 2.16412,2.98874 2.21337,3.07928 2.30391,3.03004 "/>
  <path class="fil6" d="M2.29661 2.87985l-0.103453 0.35015 -0.0447441 -0.0132205 0.103453 -0.35015 0.0447441 0.0132205zm-0.213803 0.723642l-0.103449 0.350154 -0.0447441 -0.0132205 0.103453 -0.35015 0.0447402 0.0132165z"/>
  <polygon class="fil5" points="2.6269,3.38954 2.52282,3.32585 2.50666,3.31597 2.51654,3.29983 2.58022,3.19575 2.61252,3.21548 2.55871,3.30343 2.64664,3.35723 "/>
  <polygon class="fil5" points="2.51918,3.41548 2.4151,3.3518 2.39894,3.34191 2.40881,3.32577 2.4725,3.22169 2.5048,3.24143 2.45099,3.32937 2.53892,3.38317 "/>
  <path class="fil6" d="M2.66528 3.30166l-0.354965 0.0854843 -0.0107835 -0.045185 0.354965 -0.0854803 0.0107835 0.0451811zm-0.733508 0.176693l-0.354965 0.0854843 -0.0109567 -0.0452362 0.354961 -0.0854843 0.0109606 0.0452362z"/>
  <polygon class="fil5" points="1.6387,3.59998 1.69251,3.51204 1.60458,3.45824 1.62431,3.42593 1.7284,3.48961 1.74456,3.4995 1.73469,3.51563 1.671,3.61972 "/>
  <polygon class="fil5" points="1.74642,3.57404 1.80023,3.48609 1.7123,3.4323 1.73204,3.39999 1.83612,3.46367 1.85228,3.47356 1.84241,3.48969 1.77872,3.59378 "/>
  <polygon class="fil5" points="2.38721,3.83731 2.39032,3.71533 2.3908,3.69642 2.40974,3.6969 2.53172,3.70001 2.53072,3.73785 2.42768,3.73523 2.42506,3.8383 "/>
  <polygon class="fil5" points="2.31089,3.75699 2.31399,3.63501 2.31447,3.6161 2.33341,3.61658 2.45539,3.61969 2.4544,3.65754 2.35135,3.65491 2.34873,3.75798 "/>
  <path class="fil6" d="M2.48248 3.82668l-0.251165 -0.264303 0.0337835 -0.0320118 0.251165 0.264299 -0.0337835 0.0320157zm-0.513031 -0.539929l-0.258189 -0.271693 0.0336102 -0.032063 0.258185 0.271689 -0.0336063 0.0320669z"/>
  <polygon class="fil5" points="1.71088,3.08675 1.81393,3.08937 1.81655,2.9863 1.85439,2.98729 1.85129,3.10927 1.85081,3.12818 1.83187,3.1277 1.70989,3.12459 "/>
  <polygon class="fil5" points="1.78721,3.16707 1.89025,3.16969 1.89288,3.06662 1.93072,3.06761 1.92761,3.18959 1.92713,3.2085 1.9082,3.20802 1.78622,3.20491 "/>
 </g>
</svg>
